# Blender 4.5.1 LTS
# www.blender.org
mtllib building.mtl
o building
v 1.000000 1.000000 -1.000000
v -1.000000 1.000000 -1.000000
v -1.000000 1.000000 1.000000
v 1.000000 1.000000 1.000000
v 1.000000 -1.000000 1.000000
v -1.000000 -1.000000 1.000000
v -1.000000 -1.000000 -1.000000
v 1.000000 -1.000000 -1.000000
v -760.999084 -378.834503 550.316711
v -762.789917 -379.195312 549.502625
v -763.481323 -379.784210 551.284546
v -761.690491 -379.423370 552.098633
v -761.129333 -381.300354 551.696106
v -762.920166 -381.661194 550.882019
v -762.228760 -381.072296 549.100098
v -760.437927 -380.711487 549.914185
v -1.560270 -8.532590 18.602816
v -3.187712 -3.089370 19.770197
v -5.891709 -2.312474 12.378097
v -4.264266 -7.755694 11.210713
v 0.302895 -5.199031 5.656676
v 1.527939 -5.599572 9.232131
v -0.547892 1.343348 10.721148
v -1.217669 3.583516 11.201586
v -1.512826 0.873914 6.959113
v -0.355383 2.286130 12.505944
v -1.209111 3.678500 11.351933
v -0.533722 1.419562 10.867468
v 6.998178 6.521924 8.974061
v 9.744909 -2.664919 7.003800
v 8.441434 -2.237472 3.193548
v 6.624309 3.840167 4.496992
v 6.927309 6.636454 8.877817
v -0.221615 2.931738 13.726376
v 0.281770 1.248095 13.365293
v 0.267152 -1.817806 18.657614
v -0.600570 -1.572300 16.303196
v -2.405132 -1.025520 11.237963
v -1.050081 -0.068844 16.625635
v -2.529644 2.082608 14.448166
v -2.874846 0.545506 11.574893
v -0.803771 -6.456022 9.974921
v -2.880725 0.490654 11.464744
v 1.026873 -7.015520 15.135813
v 1.894595 -7.261025 17.490231
v 11.033853 -3.075072 10.713151
v 9.253205 2.880563 11.990429
v 5.308681 1.431700 13.202367
v 7.086803 -4.515489 11.926900
v 6.059032 0.231264 14.196719
v 7.518119 -4.648866 13.150100
v 7.301559 -4.582359 12.538090
v -0.777689 -6.468740 10.070580
v 3.311882 -6.181966 14.434675
v 1.236052 0.760955 15.923693
v 1.853638 -1.304654 15.480691
v -8.191460 -3.866677 -10.261299
v -9.983891 2.128374 -8.975568
v -6.700954 7.920434 -9.281611
v -0.903675 5.346296 -11.385858
v 0.885109 -0.636554 -12.668972
v -3.659039 -2.253695 -11.463611
v -3.636694 6.720258 0.586382
v -2.420195 6.181488 0.144049
v 2.135924 4.157370 -1.510288
v -3.970744 -4.574440 -1.077092
v -6.111673 2.586211 0.458621
v -7.434613 3.096024 -3.787661
v -5.295086 -4.059934 -5.322367
v -8.348167 1.484904 -3.704801
v -6.556297 -4.508271 -4.990129
v 3.930040 -1.843313 -2.797227
v -6.003704 2.539563 0.811732
v -3.863616 -4.618271 -0.723376
v -0.594780 -3.453871 -1.595617
v 0.359084 -3.114218 -1.849559
v -4.818137 -1.740211 -0.469247
v -4.807914 -1.744902 -0.433126
v -4.711010 -1.784042 -0.115532
v -3.944988 -4.346110 -0.665007
v -4.041893 -4.306971 -0.982602
v -4.052115 -4.302280 -1.018722
v 0.826892 -3.482856 1.962305
v 0.060871 -0.920787 2.511781
v -0.007114 -0.893121 2.288001
v 0.758907 -3.455190 1.738526
v -6.082862 -2.191506 -0.128116
v -6.058770 -2.201263 -0.049035
v -4.870558 -2.672158 3.803112
v 0.633061 -0.715811 2.353715
v -0.488309 -0.279989 -1.241715
v 1.399082 -3.277880 1.804240
v -4.104537 -5.234227 3.253637
v -5.316842 -4.753575 -0.677591
v -5.292749 -4.763332 -0.598510
v 0.277712 -2.842058 -1.791190
vn -0.0000 1.0000 -0.0000
vn -0.0000 -0.0000 1.0000
vn -1.0000 -0.0000 -0.0000
vn -0.0000 -1.0000 -0.0000
vn 1.0000 -0.0000 -0.0000
vn -0.0000 -0.0000 -1.0000
vn -0.2806 0.9385 0.2013
vn -0.3457 -0.2944 0.8910
vn -0.8954 -0.1804 -0.4070
vn 0.2806 -0.9385 -0.2013
vn 0.8954 0.1804 0.4070
vn 0.8954 0.1804 0.4071
vn 0.3457 0.2944 -0.8910
vn 0.3457 0.2944 -0.8909
vn -0.8969 -0.3311 0.2933
vn -0.9041 -0.3288 0.2729
vn -0.9043 -0.3288 0.2723
vn -0.9089 -0.3272 0.2584
vn 0.9042 0.3288 -0.2725
vn 0.9043 0.3288 -0.2724
vn 0.9037 0.3294 -0.2735
vn 0.9040 0.3289 -0.2731
vn -0.8999 -0.3302 0.2850
vn -0.8998 -0.3305 0.2849
vn -0.3354 0.1006 -0.9367
vn -0.3229 0.1052 -0.9406
vn 0.8960 0.3313 -0.2957
vn 0.3267 -0.1038 0.9394
vn 0.9010 0.3298 -0.2817
vn 0.9006 0.3299 -0.2828
vn 0.9015 0.3294 -0.2807
vn 0.9036 0.3290 -0.2744
vn 0.3380 -0.0996 0.9358
vn -0.4484 0.8094 -0.3791
vn -0.4226 0.8195 -0.3872
vn -0.4228 0.8199 -0.3861
vn -0.4227 0.8193 -0.3873
vn -0.4228 0.8192 -0.3874
vn 0.0019 0.6386 0.7695
vn -0.0009 0.6430 0.7659
vn 0.5877 0.6990 0.4075
vn 0.0017 0.6387 0.7695
vn 0.0017 0.6386 0.7695
vn 0.0016 0.6385 0.7696
vn 0.3251 -0.1044 0.9399
vn -0.4240 0.7764 -0.4663
vn -0.4241 0.7764 -0.4662
vn -0.4240 0.7763 -0.4663
vn 0.3262 -0.1040 0.9396
vn -0.0346 0.6994 0.7139
vn -0.0340 0.6993 0.7140
vn -0.3419 0.0982 -0.9346
vn 0.9026 0.3293 -0.2772
vn -0.9237 -0.3210 0.2092
vn -0.2930 0.1159 -0.9491
vn 0.4009 0.9160 -0.0131
vn 0.4019 0.9156 -0.0135
vn 0.4017 0.9157 -0.0135
vn -0.9131 -0.3256 0.2454
vn 0.2915 -0.1165 0.9495
vn 0.9141 0.3252 -0.2422
vn 0.2943 -0.1155 0.9487
vn 0.2938 -0.1157 0.9488
vn 0.2940 -0.1153 0.9488
vn 0.2942 -0.1156 0.9487
vn -0.8192 0.4806 0.3129
vn -0.8189 0.4805 0.3139
vn -0.8191 0.4808 0.3128
vn -0.8191 0.4807 0.3129
vn -0.9156 -0.3246 0.2371
vn -0.9136 -0.3254 0.2438
vn 0.2931 -0.1159 0.9490
vn -0.2805 0.9385 0.2013
vn 0.9150 0.3249 -0.2392
vn 0.9210 0.3223 -0.2188
vn 0.9157 0.3244 -0.2371
vn -0.9154 -0.3247 0.2380
vn -0.2811 0.9383 0.2016
vn 0.3019 -0.1128 0.9466
vn 0.3299 -0.1026 0.9384
vn -0.2787 0.9391 0.2009
vn -0.9141 -0.3252 0.2422
vn -0.9152 -0.3248 0.2387
vn -0.9141 -0.3253 0.2421
vn 0.9131 0.3256 -0.2453
vn -0.2942 0.1155 -0.9487
vn -0.2966 0.1146 -0.9481
s 0
f 1//1 2//1 3//1
f 1//1 3//1 4//1
f 5//2 4//2 3//2
f 5//2 3//2 6//2
f 6//3 3//3 2//3
f 6//3 2//3 7//3
f 7//4 8//4 5//4
f 7//4 5//4 6//4
f 8//5 1//5 4//5
f 8//5 4//5 5//5
f 7//6 2//6 1//6
f 7//6 1//6 8//6
f 9//7 10//7 11//7
f 9//7 11//7 12//7
f 13//8 12//8 11//8
f 13//8 11//8 14//8
f 14//9 11//9 10//9
f 14//9 10//9 15//9
f 15//10 16//10 13//10
f 15//10 13//10 14//10
f 16//11 9//11 12//11
f 16//12 12//12 13//12
f 15//13 10//13 9//13
f 15//14 9//14 16//14
f 17//15 18//15 19//15
f 17//15 19//15 20//15
f 21//16 22//16 23//16
f 23//16 24//16 25//16
f 23//16 25//16 21//16
f 26//17 27//17 28//17
f 28//18 27//18 24//18
f 28//18 24//18 23//18
f 29//19 30//19 31//19
f 31//20 32//20 33//20
f 31//21 33//21 29//21
f 26//22 34//22 35//22
f 19//7 18//7 36//7
f 37//7 38//7 19//7
f 36//7 37//7 19//7
f 38//23 37//23 39//23
f 39//24 40//24 41//24
f 39//23 41//23 38//23
f 42//25 43//25 23//25
f 42//25 23//25 22//25
f 21//26 25//26 32//26
f 21//26 32//26 31//26
f 44//27 37//27 36//27
f 44//27 36//27 45//27
f 46//28 47//28 48//28
f 46//28 48//28 49//28
f 49//29 48//29 50//29
f 50//30 51//30 52//30
f 50//31 52//31 49//31
f 45//10 17//10 20//10
f 53//10 42//10 22//10
f 44//10 45//10 20//10
f 52//10 51//10 54//10
f 54//10 44//10 20//10
f 54//10 20//10 53//10
f 49//10 52//10 54//10
f 30//10 46//10 49//10
f 21//10 31//10 30//10
f 54//10 53//10 22//10
f 22//10 21//10 30//10
f 30//10 49//10 54//10
f 22//10 30//10 54//10
f 35//32 34//32 55//32
f 35//32 55//32 56//32
f 18//33 17//33 45//33
f 18//33 45//33 36//33
f 43//34 41//34 40//34
f 40//35 34//35 26//35
f 28//36 23//36 43//36
f 40//37 26//37 28//37
f 40//38 28//38 43//38
f 48//39 47//39 29//39
f 29//40 33//40 27//40
f 27//41 26//41 35//41
f 35//42 56//42 50//42
f 48//43 29//43 27//43
f 35//44 50//44 48//44
f 48//44 27//44 35//44
f 51//45 50//45 56//45
f 51//45 56//45 54//45
f 24//46 27//46 33//46
f 33//47 32//47 25//47
f 24//48 33//48 25//48
f 44//49 54//49 56//49
f 56//49 55//49 39//49
f 37//49 44//49 56//49
f 56//49 39//49 37//49
f 39//50 55//50 34//50
f 39//51 34//51 40//51
f 20//52 19//52 38//52
f 20//52 38//52 53//52
f 30//53 29//53 47//53
f 30//53 47//53 46//53
f 42//54 53//54 38//54
f 38//54 41//54 43//54
f 38//54 43//54 42//54
f 57//55 58//55 59//55
f 59//55 60//55 61//55
f 62//55 57//55 59//55
f 59//55 61//55 62//55
f 59//56 63//56 64//56
f 64//57 65//57 60//57
f 64//58 60//58 59//58
f 66//59 67//59 68//59
f 66//59 68//59 69//59
f 69//60 68//60 70//60
f 69//60 70//60 71//60
f 61//61 60//61 65//61
f 61//61 65//61 72//61
f 73//62 74//62 75//62
f 75//63 76//63 64//63
f 64//64 63//64 73//64
f 75//65 64//65 73//65
f 58//66 70//66 68//66
f 67//67 73//67 63//67
f 59//68 58//68 68//68
f 68//69 67//69 63//69
f 68//68 63//68 59//68
f 74//70 73//70 67//70
f 74//70 67//70 66//70
f 71//71 70//71 58//71
f 71//71 58//71 57//71
f 72//72 65//72 64//72
f 72//72 64//72 76//72
f 75//10 74//10 66//10
f 69//10 71//10 57//10
f 75//10 66//10 69//10
f 61//10 72//10 76//10
f 76//10 75//10 69//10
f 69//10 57//10 62//10
f 62//10 61//10 76//10
f 76//10 69//10 62//10
f 77//73 78//73 79//73
f 79//74 80//74 81//74
f 81//75 82//75 77//75
f 79//76 81//76 77//76
f 83//77 84//77 85//77
f 83//77 85//77 86//77
f 87//78 88//78 89//78
f 85//7 84//7 90//7
f 87//7 89//7 85//7
f 78//7 77//7 87//7
f 90//7 91//7 79//7
f 79//7 78//7 87//7
f 87//7 85//7 90//7
f 90//7 79//7 87//7
f 92//79 90//79 84//79
f 92//79 84//79 83//79
f 86//80 85//80 89//80
f 86//80 89//80 93//80
f 94//81 95//81 93//81
f 93//82 89//82 88//82
f 88//83 87//83 94//83
f 93//84 88//84 94//84
f 92//10 83//10 86//10
f 86//10 93//10 95//10
f 95//10 94//10 82//10
f 95//10 82//10 81//10
f 92//10 86//10 95//10
f 80//10 96//10 92//10
f 95//10 81//10 80//10
f 95//10 80//10 92//10
f 96//85 91//85 90//85
f 96//85 90//85 92//85
f 80//86 79//86 91//86
f 80//86 91//86 96//86
f 94//87 87//87 77//87
f 94//87 77//87 82//87
